<svg width="40" height="39" viewBox="0 0 40 39" fill="none" xmlns="http://www.w3.org/2000/svg">
<path d="M27.1924 12.9146C30.0538 12.9146 32.7979 14.0625 34.8212 16.1058C36.8444 18.1492 37.9811 20.9205 37.9811 23.8102V36.5218H30.7886V23.8102C30.7886 22.847 30.4098 21.9232 29.7353 21.2421C29.0609 20.561 28.1462 20.1783 27.1924 20.1783C26.2387 20.1783 25.3239 20.561 24.6495 21.2421C23.9751 21.9232 23.5962 22.847 23.5962 23.8102V36.5218H16.4038V23.8102C16.4038 20.9205 17.5404 18.1492 19.5637 16.1058C21.587 14.0625 24.3311 12.9146 27.1924 12.9146Z" stroke="#1E1E1E" stroke-width="4" stroke-linecap="round" stroke-linejoin="round"/>
<path d="M9.21136 14.7305H2.01893V36.5218H9.21136V14.7305Z" stroke="#1E1E1E" stroke-width="4" stroke-linecap="round" stroke-linejoin="round"/>
<path d="M5.61514 9.28269C7.60128 9.28269 9.21136 7.65664 9.21136 5.65081C9.21136 3.64498 7.60128 2.01893 5.61514 2.01893C3.62901 2.01893 2.01893 3.64498 2.01893 5.65081C2.01893 7.65664 3.62901 9.28269 5.61514 9.28269Z" stroke="#1E1E1E" stroke-width="4" stroke-linecap="round" stroke-linejoin="round"/>
</svg>
