<svg width="40" height="39" viewBox="0 0 40 39" fill="none" xmlns="http://www.w3.org/2000/svg">
<path d="M29.8896 9.78207H29.9076M11.0095 2.01893H28.9905C33.9559 2.01893 37.9811 5.88079 37.9811 10.6446V27.8961C37.9811 32.6599 33.9559 36.5218 28.9905 36.5218H11.0095C6.04413 36.5218 2.01893 32.6599 2.01893 27.8961V10.6446C2.01893 5.88079 6.04413 2.01893 11.0095 2.01893ZM27.1924 18.1835C27.4143 19.6193 27.1587 21.0856 26.462 22.3739C25.7652 23.6623 24.6628 24.707 23.3114 25.3596C21.9601 26.0121 20.4288 26.2393 18.9351 26.0087C17.4415 25.7781 16.0617 25.1015 14.992 24.0752C13.9222 23.0488 13.2171 21.725 12.9767 20.292C12.7364 18.859 12.9731 17.3898 13.6533 16.0933C14.3334 14.7968 15.4224 13.7391 16.7652 13.0706C18.108 12.4021 19.6363 12.1569 21.1328 12.3698C22.6593 12.587 24.0724 13.2694 25.1636 14.3163C26.2548 15.3632 26.9661 16.719 27.1924 18.1835Z" stroke="#1E1E1E" stroke-width="4" stroke-linecap="round" stroke-linejoin="round"/>
</svg>
